<svg xmlns="http://www.w3.org/2000/svg" width="579.938" height="348" viewBox="0 0 579.938 348">
  <defs>
    <style>
      .cls-1 {
        fill: #fff;
        fill-rule: evenodd;
        opacity: 0.71;
      }
    </style>
  </defs>
  <path id="Фигура_22" data-name="Фигура 22" class="cls-1" d="M388.267,1997h537.6a7.5,7.5,0,0,1,7.038,5.54,656.636,656.636,0,0,1,12.713,81.95q1.918,20.715,2.675,41.61,0.387,10.44.5,20.94,0.058,5.25.053,10.51t-0.075,10.53c-0.739,56.21-6.815,113.33-16.156,171a7.156,7.156,0,0,1-2.378,4.19,6.721,6.721,0,0,1-4.372,1.73h-537.6a7,7,0,0,1-6.565-6.17c-15.1-120.19-18.793-234.32-.19-336.6a6.946,6.946,0,0,1,6.755-5.23h0Z" transform="translate(-368.906 -1997)"/>
</svg>
